<?xml version="1.0" standalone="no"?>
<!DOCTYPE svg PUBLIC "-//W3C//DTD SVG 20010904//EN"
 "http://www.w3.org/TR/2001/REC-SVG-20010904/DTD/svg10.dtd">
<svg version="1.0" xmlns="http://www.w3.org/2000/svg"
 width="110.000000pt" height="110.000000pt" viewBox="0 0 110.000000 110.000000"
 preserveAspectRatio="xMidYMid meet">
<metadata>
Created by potrace 1.11, written by Peter Selinger 2001-2013
</metadata>
<g transform="translate(0.000000,110.000000) scale(0.100000,-0.100000)"
fill="#000000" stroke="none">
<path d="M44 1051 c-2 -2 -4 -150 -4 -328 l0 -323 28 -1 c15 -1 32 0 37 1 6 1
7 -2 3 -6 -10 -9 12 -35 23 -28 5 3 9 11 9 17 0 7 -4 6 -11 -3 -9 -12 -10 -13
-7 0 3 8 16 15 31 15 14 1 24 -2 21 -7 -3 -4 -2 -8 3 -9 4 0 16 -2 26 -4 9 -2
15 1 11 6 -3 5 -11 6 -17 3 -7 -4 -9 -3 -4 1 10 11 68 14 61 3 -3 -5 -10 -6
-15 -3 -5 4 -9 2 -9 -4 0 -5 9 -9 20 -8 11 1 20 7 20 14 0 7 4 13 10 13 5 0 7
-6 4 -14 -3 -7 2 -16 10 -19 10 -4 13 -1 10 7 -3 8 -1 17 5 21 6 3 15 -4 20
-17 7 -17 10 -19 10 -5 1 9 6 17 12 17 5 0 8 -4 4 -9 -3 -5 -2 -12 3 -14 4 -3
7 -69 7 -146 0 -128 1 -142 18 -147 10 -3 21 -3 24 0 4 3 15 -1 25 -10 15 -14
20 -15 33 -4 12 10 19 10 27 2 7 -7 17 -12 22 -12 6 0 4 5 -4 10 -11 8 -6 9
18 5 25 -4 32 -2 27 7 -4 7 1 4 9 -6 9 -11 16 -14 16 -8 0 16 27 15 33 0 4
-10 6 -10 6 0 1 6 7 12 15 12 8 0 17 -6 19 -12 4 -10 6 -10 6 0 1 6 7 12 15
12 8 0 17 -6 19 -12 4 -10 6 -10 6 0 1 6 6 12 12 12 5 0 8 -4 4 -9 -3 -5 -1
-13 5 -16 6 -4 9 -1 8 6 -2 6 3 14 11 17 9 3 11 0 6 -9 -5 -8 -5 -11 0 -7 4 4
16 3 26 -3 14 -7 19 -7 17 2 -2 6 3 14 11 17 8 2 11 0 8 -5 -3 -5 4 -10 16
-10 17 -2 19 0 7 8 -11 7 -5 8 18 4 25 -4 32 -2 27 7 -4 7 1 4 9 -6 9 -11 16
-14 16 -8 0 16 27 15 33 0 4 -10 6 -10 6 0 1 6 9 12 19 12 14 0 15 -2 2 -10
-22 -14 -3 -12 20 2 17 11 22 10 30 -1 7 -12 11 -12 24 -2 14 12 11 46 -4 36
-4 -2 -7 8 -6 23 1 27 12 40 24 26 4 -4 2 -5 -3 -1 -6 3 -12 -3 -12 -14 -1
-12 4 -19 15 -18 11 0 13 2 4 6 -9 4 -10 8 -2 18 8 10 6 18 -10 33 l-22 20 21
12 c12 6 19 15 15 21 -4 6 -11 6 -20 -2 -12 -10 -13 -9 -8 5 3 9 11 16 17 16
6 0 3 6 -8 13 -12 10 -14 16 -7 21 7 4 12 15 12 24 0 15 -2 15 -10 2 -6 -9
-10 -10 -10 -3 0 20 18 24 29 6 6 -10 11 -13 11 -6 0 7 -9 21 -21 32 l-21 19
21 12 c12 6 19 15 15 21 -4 6 -11 6 -20 -2 -12 -10 -13 -9 -8 5 3 9 11 16 18
16 6 0 3 5 -6 11 -15 8 -16 13 -6 29 7 10 17 16 23 13 5 -3 4 0 -3 8 -11 12
-14 12 -22 -1 -8 -12 -9 -9 -7 9 2 13 14 32 26 43 25 20 21 24 -10 8 -24 -13
-25 -2 -1 17 16 14 16 14 -3 9 -17 -5 -16 -3 5 14 24 19 25 19 3 15 -13 -2
-23 0 -23 6 0 5 10 9 23 9 17 0 19 2 7 9 -8 6 -18 7 -22 5 -4 -3 -5 2 -1 11 4
13 7 14 14 3 6 -9 8 -6 6 10 -1 12 -6 21 -12 19 -6 -3 -11 12 -12 35 0 22 -3
41 -5 43 -2 2 -72 5 -155 6 -126 1 -154 4 -165 17 -10 13 -11 14 0 8 10 -6 12
1 9 26 -2 19 -6 39 -10 45 -5 7 1 10 15 6 21 -4 21 -3 5 7 -18 11 -18 12 0 33
10 11 13 18 8 14 -6 -3 -16 3 -22 13 -10 15 -9 17 10 13 22 -5 22 -5 2 11 -11
10 -14 15 -7 11 6 -3 12 -1 12 4 0 6 -4 11 -10 11 -5 0 -10 5 -10 11 0 5 4 8
8 5 7 -4 8 28 2 44 -1 3 -2 8 -1 13 0 4 -3 7 -9 7 -5 0 -10 6 -10 13 0 9 -70
12 -321 12 -176 0 -322 -2 -325 -4z m996 -975 c0 -3 -4 -8 -10 -11 -5 -3 -10
-1 -10 4 0 6 5 11 10 11 6 0 10 -2 10 -4z"/>
<path d="M715 801 c-3 -5 -2 -12 3 -15 5 -3 9 1 9 9 0 17 -3 19 -12 6z"/>
<path d="M1030 701 c0 -6 4 -13 10 -16 6 -3 7 1 4 9 -7 18 -14 21 -14 7z"/>
<path d="M1040 490 c-9 -6 -10 -10 -3 -10 6 0 15 5 18 10 8 12 4 12 -15 0z"/>
<path d="M1040 430 c-9 -6 -10 -10 -3 -10 6 0 15 5 18 10 8 12 4 12 -15 0z"/>
<path d="M70 379 c0 -5 5 -7 10 -4 6 3 10 8 10 11 0 2 -4 4 -10 4 -5 0 -10 -5
-10 -11z"/>
<path d="M150 381 c0 -10 19 -25 25 -20 1 2 -3 10 -11 17 -8 7 -14 8 -14 3z"/>
<path d="M1040 270 c-9 -6 -10 -10 -3 -10 6 0 15 5 18 10 8 12 4 12 -15 0z"/>
<path d="M410 61 c0 -6 4 -13 10 -16 6 -3 7 1 4 9 -7 18 -14 21 -14 7z"/>
</g>
</svg>
